<svg xmlns="http://www.w3.org/2000/svg" viewBox="0 0 512 512" fill="none">
  <rect width="512" height="512" rx="96" fill="#f7f0e6"/>
  <rect x="132" y="96" width="248" height="320" rx="12" fill="#fffcf7" stroke="#7c4a2d" stroke-width="8"/>
  <line x1="172" y1="96" x2="340" y2="96" stroke="#7c4a2d" stroke-width="6"/>
  <rect x="172" y="76" width="80" height="20" rx="4" fill="#f7f0e6" stroke="#7c4a2d" stroke-width="5"/>
  <line x1="180" y1="160" x2="300" y2="160" stroke="#7c4a2d" stroke-width="4" stroke-linecap="round"/>
  <line x1="180" y1="200" x2="280" y2="200" stroke="#7c4a2d" stroke-width="4" stroke-linecap="round"/>
  <line x1="180" y1="240" x2="300" y2="240" stroke="#7c4a2d" stroke-width="4" stroke-linecap="round"/>
  <line x1="180" y1="280" x2="260" y2="280" stroke="#7c4a2d" stroke-width="4" stroke-linecap="round"/>
  <line x1="180" y1="320" x2="290" y2="320" stroke="#7c4a2d" stroke-width="4" stroke-linecap="round"/>
  <line x1="180" y1="360" x2="240" y2="360" stroke="#7c4a2d" stroke-width="4" stroke-linecap="round"/>
  <circle cx="392" cy="392" r="48" fill="#f7f0e6" stroke="#7c4a2d" stroke-width="5"/>
  <circle cx="392" cy="392" r="12" fill="#c9a44a"/>
  <line x1="392" y1="348" x2="392" y2="340" stroke="#7c4a2d" stroke-width="4" stroke-linecap="round"/>
  <line x1="392" y1="436" x2="392" y2="444" stroke="#7c4a2d" stroke-width="4" stroke-linecap="round"/>
  <line x1="348" y1="392" x2="340" y2="392" stroke="#7c4a2d" stroke-width="4" stroke-linecap="round"/>
  <line x1="436" y1="392" x2="444" y2="392" stroke="#7c4a2d" stroke-width="4" stroke-linecap="round"/>
</svg>
