<svg xmlns="http://www.w3.org/2000/svg" viewBox="0 0 512 512" fill="none">
  <rect width="512" height="512" rx="96" fill="#f7f0e6"/>
  <rect x="156" y="136" width="200" height="240" rx="10" fill="#fffcf7" stroke="#7c4a2d" stroke-width="7"/>
  <line x1="186" y1="136" x2="326" y2="136" stroke="#7c4a2d" stroke-width="5"/>
  <rect x="186" y="120" width="64" height="16" rx="3" fill="#f7f0e6" stroke="#7c4a2d" stroke-width="4"/>
  <line x1="192" y1="188" x2="296" y2="188" stroke="#7c4a2d" stroke-width="3.5" stroke-linecap="round"/>
  <line x1="192" y1="220" x2="276" y2="220" stroke="#7c4a2d" stroke-width="3.5" stroke-linecap="round"/>
  <line x1="192" y1="252" x2="296" y2="252" stroke="#7c4a2d" stroke-width="3.5" stroke-linecap="round"/>
  <line x1="192" y1="284" x2="256" y2="284" stroke="#7c4a2d" stroke-width="3.5" stroke-linecap="round"/>
  <line x1="192" y1="316" x2="286" y2="316" stroke="#7c4a2d" stroke-width="3.5" stroke-linecap="round"/>
  <line x1="192" y1="348" x2="236" y2="348" stroke="#7c4a2d" stroke-width="3.5" stroke-linecap="round"/>
  <circle cx="384" cy="384" r="40" fill="#f7f0e6" stroke="#7c4a2d" stroke-width="4"/>
  <circle cx="384" cy="384" r="10" fill="#c9a44a"/>
  <line x1="384" y1="348" x2="384" y2="340" stroke="#7c4a2d" stroke-width="3.5" stroke-linecap="round"/>
  <line x1="384" y1="420" x2="384" y2="428" stroke="#7c4a2d" stroke-width="3.5" stroke-linecap="round"/>
  <line x1="348" y1="384" x2="340" y2="384" stroke="#7c4a2d" stroke-width="3.5" stroke-linecap="round"/>
  <line x1="420" y1="384" x2="428" y2="384" stroke="#7c4a2d" stroke-width="3.5" stroke-linecap="round"/>
</svg>
